<svg version="1.1" xmlns="http://www.w3.org/2000/svg" xmlns:xlink="http://www.w3.org/1999/xlink" width="1919" height="796" viewBox="0 0 1919 796"><defs/><g/><g><path fill="rgb(255,255,255)" stroke="none" paint-order="stroke fill markers" d=" M 0 0 L 1919 0 L 1919 796 L 0 796 L 0 0 Z" fill-opacity="1"/><path fill="none" stroke="rgb(0,0,0)" paint-order="fill stroke markers" d=" M 1119.0618181818181 140.74727272727267 C 1119.0618181818181 140.74727272727267 1119.0618181818181 140.74727272727267 1119.0618181818181 140.74727272727267 C 1119.0618181818181 140.74727272727267 1119.0618181818181 279.6854545454545 1119.0618181818181 279.6854545454545 C 1119.0618181818181 279.6854545454545 1125.5745454545454 281.8563636363636 1125.5745454545454 281.8563636363636 C 1125.5745454545454 281.8563636363636 1160.3090909090909 288.36909090909086 1160.3090909090909 288.36909090909086 C 1160.3090909090909 288.36909090909086 1188.530909090909 292.710909090909 1188.530909090909 292.710909090909 C 1188.530909090909 292.710909090909 1210.24 294.8818181818181 1210.24 294.8818181818181 C 1210.24 294.8818181818181 1223.2654545454545 294.8818181818181 1223.2654545454545 294.8818181818181 C 1223.2654545454545 294.8818181818181 1231.949090909091 288.36909090909086 1231.949090909091 288.36909090909086 C 1231.949090909091 288.36909090909086 1247.1454545454546 262.31818181818176 1247.1454545454546 262.31818181818176 C 1247.1454545454546 262.31818181818176 1253.658181818182 225.4127272727272 1253.658181818182 225.4127272727272 C 1253.658181818182 225.4127272727272 1258 186.33636363636356 1258 186.33636363636356 C 1258 186.33636363636356 1258 153.7727272727272 1258 153.7727272727272 C 1258 153.7727272727272 1242.8036363636363 151.60181818181812 1242.8036363636363 151.60181818181812 C 1242.8036363636363 151.60181818181812 1168.9927272727273 151.60181818181812 1168.9927272727273 151.60181818181812 C 1168.9927272727273 151.60181818181812 1134.2581818181818 147.25999999999993 1134.2581818181818 147.25999999999993 C 1134.2581818181818 147.25999999999993 1103.8654545454544 147.25999999999993 1103.8654545454544 147.25999999999993" stroke-opacity="0.8" stroke-linecap="round" stroke-miterlimit="10" stroke-width="2.5"/><path fill="none" stroke="rgb(0,0,0)" paint-order="fill stroke markers" d=" M 1151.6254545454544 227.5836363636363 C 1151.6254545454544 227.5836363636363 1119.0618181818181 251.46363636363628 1119.0618181818181 251.46363636363628 C 1119.0618181818181 251.46363636363628 1086.4981818181818 279.6854545454545 1086.4981818181818 279.6854545454545" stroke-opacity="0.8" stroke-linecap="round" stroke-miterlimit="10" stroke-width="2.5"/><path fill="none" stroke="rgb(0,0,0)" paint-order="fill stroke markers" d=" M 1095.1818181818182 247.12181818181813 C 1095.1818181818182 247.12181818181813 1073.4727272727273 266.65999999999997 1073.4727272727273 266.65999999999997 C 1073.4727272727273 266.65999999999997 1060.4472727272728 284.0272727272727 1060.4472727272728 284.0272727272727 C 1060.4472727272728 284.0272727272727 1066.96 286.1981818181818 1066.96 286.1981818181818 C 1066.96 286.1981818181818 1079.9854545454546 290.53999999999996 1079.9854545454546 290.53999999999996 C 1079.9854545454546 290.53999999999996 1097.3527272727272 292.71090909090907 1097.3527272727272 292.71090909090907" stroke-opacity="0.8" stroke-linecap="round" stroke-miterlimit="10" stroke-width="2.5"/><path fill="none" stroke="rgb(0,0,0)" paint-order="fill stroke markers" d=" M 954.0727272727272 253.63454545454545 C 954.0727272727272 253.63454545454545 930.1927272727272 294.8818181818182 930.1927272727272 294.8818181818182 C 930.1927272727272 294.8818181818182 910.6545454545454 340.47090909090906 910.6545454545454 340.47090909090906 C 910.6545454545454 340.47090909090906 901.9709090909091 373.0345454545454 901.9709090909091 373.0345454545454 C 901.9709090909091 373.0345454545454 901.9709090909091 388.23090909090905 901.9709090909091 388.23090909090905 C 901.9709090909091 388.23090909090905 904.1418181818182 390.40181818181816 904.1418181818182 390.40181818181816 C 904.1418181818182 390.40181818181816 914.9963636363636 392.57272727272726 914.9963636363636 392.57272727272726 C 914.9963636363636 392.57272727272726 949.7309090909091 390.40181818181816 949.7309090909091 390.40181818181816 C 949.7309090909091 390.40181818181816 1004.0036363636364 383.8890909090909 1004.0036363636364 383.8890909090909 C 1004.0036363636364 383.8890909090909 1060.4472727272728 375.20545454545453 1060.4472727272728 375.20545454545453 C 1060.4472727272728 375.20545454545453 1071.3018181818181 355.6672727272727 1071.3018181818181 355.6672727272727 C 1071.3018181818181 355.6672727272727 1084.3272727272727 320.9327272727272 1084.3272727272727 320.9327272727272 C 1084.3272727272727 320.9327272727272 1090.84 294.8818181818181 1090.84 294.8818181818181 C 1090.84 294.8818181818181 1093.010909090909 264.48909090909086 1093.010909090909 264.48909090909086 C 1093.010909090909 264.48909090909086 1090.84 260.1472727272727 1090.84 260.1472727272727 C 1090.84 260.1472727272727 1084.3272727272727 255.80545454545452 1084.3272727272727 255.80545454545452 C 1084.3272727272727 255.80545454545452 1032.2254545454546 251.46363636363634 1032.2254545454546 251.46363636363634 C 1032.2254545454546 251.46363636363634 964.9272727272728 257.9763636363636 964.9272727272728 257.9763636363636 C 964.9272727272728 257.9763636363636 945.389090909091 262.31818181818176 945.389090909091 262.31818181818176" stroke-opacity="0.8" stroke-linecap="round" stroke-miterlimit="10" stroke-width="2.5"/><path fill="none" stroke="rgb(0,0,0)" paint-order="fill stroke markers" d=" M 912.8254545454547 379.5472727272727 C 912.8254545454547 379.5472727272727 901.9709090909092 390.40181818181816 901.9709090909092 390.40181818181816 C 901.9709090909092 390.40181818181816 886.7745454545455 405.5981818181818 886.7745454545455 405.5981818181818 C 886.7745454545455 405.5981818181818 862.8945454545456 433.82 862.8945454545456 433.82 C 862.8945454545456 433.82 823.8181818181819 488.09272727272725 823.8181818181819 488.09272727272725 C 823.8181818181819 488.09272727272725 808.6218181818182 509.80181818181813 808.6218181818182 509.80181818181813 C 808.6218181818182 509.80181818181813 795.5963636363637 533.6818181818181 795.5963636363637 533.6818181818181" stroke-opacity="0.8" stroke-linecap="round" stroke-miterlimit="10" stroke-width="2.5"/><path fill="none" stroke="rgb(0,0,0)" paint-order="fill stroke markers" d=" M 793.4254545454546 494.6054545454545 C 793.4254545454546 494.6054545454545 786.9127272727274 520.6563636363636 786.9127272727274 520.6563636363636 C 786.9127272727274 520.6563636363636 789.0836363636364 527.1690909090909 789.0836363636364 527.1690909090909 C 789.0836363636364 527.1690909090909 795.5963636363637 529.3399999999999 795.5963636363637 529.3399999999999 C 795.5963636363637 529.3399999999999 812.9636363636364 527.1690909090909 812.9636363636364 527.1690909090909 C 812.9636363636364 527.1690909090909 836.8436363636364 516.3145454545454 836.8436363636364 516.3145454545454" stroke-opacity="0.8" stroke-linecap="round" stroke-miterlimit="10" stroke-width="2.5"/><path fill="none" stroke="rgb(0,0,0)" paint-order="fill stroke markers" d=" M 713.1018181818182 520.6563636363636 C 713.1018181818182 520.6563636363636 706.5890909090909 529.3399999999999 706.5890909090909 529.3399999999999 C 706.5890909090909 529.3399999999999 700.0763636363637 542.3654545454544 700.0763636363637 542.3654545454544 C 700.0763636363637 542.3654545454544 678.3672727272727 594.4672727272726 678.3672727272727 594.4672727272726 C 678.3672727272727 594.4672727272726 661 642.2272727272726 661 642.2272727272726 C 661 642.2272727272726 732.64 640.0563636363636 732.64 640.0563636363636 C 732.64 640.0563636363636 771.7163636363637 644.3981818181818 771.7163636363637 644.3981818181818 C 771.7163636363637 644.3981818181818 795.5963636363637 644.3981818181818 795.5963636363637 644.3981818181818 C 795.5963636363637 644.3981818181818 808.6218181818182 627.0309090909091 808.6218181818182 627.0309090909091 C 808.6218181818182 627.0309090909091 830.3309090909091 572.7581818181818 830.3309090909091 572.7581818181818 C 830.3309090909091 572.7581818181818 839.0145454545454 551.0490909090909 839.0145454545454 551.0490909090909 C 839.0145454545454 551.0490909090909 841.1854545454545 542.3654545454546 841.1854545454545 542.3654545454546 C 841.1854545454545 542.3654545454546 839.0145454545454 533.6818181818182 839.0145454545454 533.6818181818182 C 839.0145454545454 533.6818181818182 834.6727272727272 529.34 834.6727272727272 529.34 C 834.6727272727272 529.34 806.450909090909 522.8272727272728 806.450909090909 522.8272727272728 C 806.450909090909 522.8272727272728 754.3490909090908 518.4854545454546 754.3490909090908 518.4854545454546 C 754.3490909090908 518.4854545454546 732.6399999999999 520.6563636363636 732.6399999999999 520.6563636363636" stroke-opacity="0.8" stroke-linecap="round" stroke-miterlimit="10" stroke-width="2.5"/><path fill="none" stroke="rgb(0,0,0)" paint-order="fill stroke markers" d=" M 1008.3454545454545 407.7690909090909 C 1008.3454545454545 407.7690909090909 973.610909090909 446.8454545454545 973.610909090909 446.8454545454545 C 973.610909090909 446.8454545454545 951.901818181818 477.2381818181818 951.901818181818 477.2381818181818 C 951.901818181818 477.2381818181818 941.0472727272726 496.7763636363636 941.0472727272726 496.7763636363636 C 941.0472727272726 496.7763636363636 936.7054545454544 514.1436363636363 936.7054545454544 514.1436363636363 C 936.7054545454544 514.1436363636363 936.7054545454544 522.8272727272727 936.7054545454544 522.8272727272727 C 936.7054545454544 522.8272727272727 941.0472727272726 527.1690909090909 941.0472727272726 527.1690909090909 C 941.0472727272726 527.1690909090909 951.901818181818 531.5109090909091 951.901818181818 531.5109090909091 C 951.901818181818 531.5109090909091 993.1490909090908 538.0236363636363 993.1490909090908 538.0236363636363 C 993.1490909090908 538.0236363636363 1060.4472727272725 533.6818181818181 1060.4472727272725 533.6818181818181 C 1060.4472727272725 533.6818181818181 1077.8145454545452 529.3399999999999 1077.8145454545452 529.3399999999999 C 1077.8145454545452 529.3399999999999 1086.4981818181816 524.9981818181817 1086.4981818181816 524.9981818181817 C 1086.4981818181816 524.9981818181817 1093.0109090909089 518.4854545454544 1093.0109090909089 518.4854545454544 C 1093.0109090909089 518.4854545454544 1114.7199999999998 455.5290909090908 1114.7199999999998 455.5290909090908 C 1114.7199999999998 455.5290909090908 1119.061818181818 435.990909090909 1119.061818181818 435.990909090909 C 1119.061818181818 435.990909090909 1119.061818181818 427.3072727272726 1119.061818181818 427.3072727272726 C 1119.061818181818 427.3072727272726 1038.7381818181816 427.3072727272726 1038.7381818181816 427.3072727272726 C 1038.7381818181816 427.3072727272726 993.1490909090907 427.3072727272726 993.1490909090907 427.3072727272726 C 993.1490909090907 427.3072727272726 977.952727272727 429.4781818181817 977.952727272727 429.4781818181817" stroke-opacity="0.8" stroke-linecap="round" stroke-miterlimit="10" stroke-width="2.5"/><path fill="none" stroke="rgb(0,0,0)" paint-order="fill stroke markers" d=" M 977.952727272727 522.8272727272727 C 977.952727272727 522.8272727272727 958.4145454545452 538.0236363636363 958.4145454545452 538.0236363636363 C 958.4145454545452 538.0236363636363 893.2872727272725 581.4418181818181 893.2872727272725 581.4418181818181 C 893.2872727272725 581.4418181818181 873.7490909090907 596.6381818181818 873.7490909090907 596.6381818181818" stroke-opacity="0.8" stroke-linecap="round" stroke-miterlimit="10" stroke-width="2.5"/><path fill="none" stroke="rgb(0,0,0)" paint-order="fill stroke markers" d=" M 882.432727272727 566.2454545454545 C 882.432727272727 566.2454545454545 865.0654545454543 594.4672727272728 865.0654545454543 594.4672727272728 C 865.0654545454543 594.4672727272728 860.723636363636 605.3218181818182 860.723636363636 605.3218181818182 C 860.723636363636 605.3218181818182 867.2363636363633 607.4927272727273 867.2363636363633 607.4927272727273 C 867.2363636363633 607.4927272727273 886.7745454545451 603.1509090909091 886.7745454545451 603.1509090909091" stroke-opacity="0.8" stroke-linecap="round" stroke-miterlimit="10" stroke-width="2.5"/><path fill="none" stroke="rgb(0,0,0)" paint-order="fill stroke markers" d=" M 819.4763636363633 548.8781818181818 C 819.4763636363633 548.8781818181818 812.963636363636 585.7836363636363 812.963636363636 585.7836363636363 C 812.963636363636 585.7836363636363 815.1345454545451 603.1509090909091 815.1345454545451 603.1509090909091 C 815.1345454545451 603.1509090909091 817.3054545454542 611.8345454545454 817.3054545454542 611.8345454545454 C 817.3054545454542 611.8345454545454 828.1599999999996 633.5436363636363 828.1599999999996 633.5436363636363 C 828.1599999999996 633.5436363636363 834.6727272727269 642.2272727272726 834.6727272727269 642.2272727272726 C 834.6727272727269 642.2272727272726 841.1854545454541 646.5690909090908 841.1854545454541 646.5690909090908 C 841.1854545454541 646.5690909090908 852.0399999999996 650.9109090909091 852.0399999999996 650.9109090909091 C 852.0399999999996 650.9109090909091 899.7999999999996 648.74 899.7999999999996 648.74 C 899.7999999999996 648.74 919.3381818181814 640.0563636363637 919.3381818181814 640.0563636363637 C 919.3381818181814 640.0563636363637 945.3890909090904 618.3472727272728 945.3890909090904 618.3472727272728 C 945.3890909090904 618.3472727272728 954.0727272727268 605.3218181818182 954.0727272727268 605.3218181818182 C 954.0727272727268 605.3218181818182 956.2436363636358 596.6381818181819 956.2436363636358 596.6381818181819 C 956.2436363636358 596.6381818181819 956.2436363636358 583.6127272727274 956.2436363636358 583.6127272727274 C 956.2436363636358 583.6127272727274 949.7309090909085 564.0745454545456 949.7309090909085 564.0745454545456 C 949.7309090909085 564.0745454545456 938.8763636363631 548.8781818181819 938.8763636363631 548.8781818181819 C 938.8763636363631 548.8781818181819 925.8509090909085 538.0236363636365 925.8509090909085 538.0236363636365 C 925.8509090909085 538.0236363636365 908.4836363636358 529.3400000000001 908.4836363636358 529.3400000000001 C 908.4836363636358 529.3400000000001 878.0909090909086 522.8272727272729 878.0909090909086 522.8272727272729 C 878.0909090909086 522.8272727272729 862.8945454545449 522.8272727272729 862.8945454545449 522.8272727272729 C 862.8945454545449 522.8272727272729 834.6727272727267 535.8527272727274 834.6727272727267 535.8527272727274 C 834.6727272727267 535.8527272727274 823.8181818181812 546.7072727272729 823.8181818181812 546.7072727272729 C 823.8181818181812 546.7072727272729 812.9636363636357 564.0745454545456 812.9636363636357 564.0745454545456 C 812.9636363636357 564.0745454545456 808.6218181818175 577.1000000000001 808.6218181818175 577.1000000000001" stroke-opacity="0.8" stroke-linecap="round" stroke-miterlimit="10" stroke-width="2.5"/><path fill="none" stroke="rgb(0,0,0)" paint-order="fill stroke markers" d=" M 1017.0290909090902 581.4418181818183 C 1017.0290909090902 581.4418181818183 1004.0036363636357 583.6127272727274 1004.0036363636357 583.6127272727274 C 1004.0036363636357 583.6127272727274 997.4909090909084 585.7836363636364 997.4909090909084 585.7836363636364 C 997.4909090909084 585.7836363636364 986.636363636363 596.6381818181819 986.636363636363 596.6381818181819 C 986.636363636363 596.6381818181819 980.1236363636357 607.4927272727274 980.1236363636357 607.4927272727274 C 980.1236363636357 607.4927272727274 980.1236363636357 614.0054545454547 980.1236363636357 614.0054545454547 C 980.1236363636357 614.0054545454547 986.636363636363 622.689090909091 986.636363636363 622.689090909091 C 986.636363636363 622.689090909091 999.6618181818175 627.0309090909092 999.6618181818175 627.0309090909092" stroke-opacity="0.8" stroke-linecap="round" stroke-miterlimit="10" stroke-width="2.5"/><path fill="none" stroke="rgb(0,0,0)" paint-order="fill stroke markers" d=" M 997.4909090909084 600.9800000000001 C 997.4909090909084 600.9800000000001 1025.7127272727266 600.9800000000001 1025.7127272727266 600.9800000000001 C 1025.7127272727266 600.9800000000001 1082.156363636363 600.9800000000001 1082.156363636363 600.9800000000001" stroke-opacity="0.8" stroke-linecap="round" stroke-miterlimit="10" stroke-width="2.5"/><path fill="none" stroke="rgb(0,0,0)" paint-order="fill stroke markers" d=" M 1114.7199999999993 568.4163636363637 C 1114.7199999999993 568.4163636363637 1101.6945454545448 568.4163636363637 1101.6945454545448 568.4163636363637 C 1101.6945454545448 568.4163636363637 1058.276363636363 579.2709090909092 1058.276363636363 579.2709090909092 C 1058.276363636363 579.2709090909092 1051.7636363636357 581.4418181818182 1051.7636363636357 581.4418181818182 C 1051.7636363636357 581.4418181818182 1047.4218181818176 585.7836363636364 1047.4218181818176 585.7836363636364 C 1047.4218181818176 585.7836363636364 1045.2509090909084 596.6381818181819 1045.2509090909084 596.6381818181819 C 1045.2509090909084 596.6381818181819 1047.4218181818176 609.6636363636364 1047.4218181818176 609.6636363636364 C 1047.4218181818176 609.6636363636364 1051.7636363636357 618.3472727272728 1051.7636363636357 618.3472727272728 C 1051.7636363636357 618.3472727272728 1058.276363636363 627.0309090909091 1058.276363636363 627.0309090909091 C 1058.276363636363 627.0309090909091 1079.9854545454539 640.0563636363636 1079.9854545454539 640.0563636363636 C 1079.9854545454539 640.0563636363636 1116.8909090909085 653.0818181818181 1116.8909090909085 653.0818181818181 C 1116.8909090909085 653.0818181818181 1140.7709090909086 655.2527272727272 1140.7709090909086 655.2527272727272 C 1140.7709090909086 655.2527272727272 1160.3090909090904 653.0818181818181 1160.3090909090904 653.0818181818181 C 1160.3090909090904 653.0818181818181 1171.1636363636358 648.7399999999999 1171.1636363636358 648.7399999999999 C 1171.1636363636358 648.7399999999999 1186.3599999999994 637.8854545454544 1186.3599999999994 637.8854545454544 C 1186.3599999999994 637.8854545454544 1192.8727272727267 624.8599999999999 1192.8727272727267 624.8599999999999 C 1192.8727272727267 624.8599999999999 1195.0436363636359 611.8345454545454 1195.0436363636359 611.8345454545454 C 1195.0436363636359 611.8345454545454 1192.8727272727267 600.9799999999999 1192.8727272727267 600.9799999999999 C 1192.8727272727267 600.9799999999999 1182.0181818181813 583.6127272727272 1182.0181818181813 583.6127272727272 C 1182.0181818181813 583.6127272727272 1168.9927272727268 572.7581818181817 1168.9927272727268 572.7581818181817 C 1168.9927272727268 572.7581818181817 1155.9672727272723 566.2454545454544 1155.9672727272723 566.2454545454544 C 1155.9672727272723 566.2454545454544 1142.9418181818178 564.0745454545454 1142.9418181818178 564.0745454545454 C 1142.9418181818178 564.0745454545454 1132.0872727272724 564.0745454545454 1132.0872727272724 564.0745454545454 C 1132.0872727272724 564.0745454545454 1121.232727272727 566.2454545454544 1121.232727272727 566.2454545454544 C 1121.232727272727 566.2454545454544 1110.3781818181817 572.7581818181817 1110.3781818181817 572.7581818181817 C 1110.3781818181817 572.7581818181817 1099.5236363636363 583.6127272727272 1099.5236363636363 583.6127272727272 C 1099.5236363636363 583.6127272727272 1095.1818181818182 592.2963636363635 1095.1818181818182 592.2963636363635" stroke-opacity="0.8" stroke-linecap="round" stroke-miterlimit="10" stroke-width="2.5"/><g transform="scale(1,1) scale(1,1) scale(1,1) scale(1,1) scale(1,1) scale(1,1) scale(1,1) scale(1,1) scale(1,1) scale(1,1) scale(1,1) scale(1,1) scale(1,1) scale(1,1) scale(1,1) scale(1,1) scale(1,1) scale(1,1) scale(1,1) scale(1,1) scale(1,1) scale(1,1) scale(1,1) scale(1,1) scale(1,1) scale(1,1) scale(1,1) scale(1,1) scale(1,1) scale(1,1) scale(1,1) scale(1,1) scale(1,1) scale(1,1) scale(1,1) scale(1,1) scale(1,1) scale(1,1) scale(1,1) scale(1,1) scale(1,1) scale(1,1) scale(1,1) scale(1,1) scale(1,1) scale(1,1) scale(1,1) scale(1,1) scale(1,1) scale(1,1) scale(1,1) scale(1,1) scale(1,1) scale(1,1) scale(1,1) scale(1,1) scale(1,1) scale(1,1) scale(1,1) scale(1,1) scale(1,1) scale(1,1) scale(1,1) scale(1,1) scale(1,1) scale(1,1) scale(1,1) scale(1,1) scale(1,1) scale(1,1) scale(1,1) scale(1,1) scale(1,1) scale(1,1) scale(1,1) scale(1,1) scale(1,1) scale(1,1) scale(1,1) scale(1,1) scale(1,1) scale(1,1) scale(1,1) scale(1,1) scale(1,1) scale(1,1) scale(1,1) scale(1,1) scale(1,1) scale(1,1) scale(1,1) scale(1,1) scale(1,1) scale(1,1) scale(1,1) scale(1,1) scale(1,1) scale(1,1) scale(1,1) scale(1,1) scale(1,1) scale(1,1) scale(1,1) scale(1,1) scale(1,1) scale(1,1) scale(1,1) scale(1,1) scale(1,1) scale(1,1) scale(1,1) scale(1,1) scale(1,1) scale(1,1) scale(1,1) scale(1,1) scale(1,1) scale(1,1) scale(1,1) scale(1,1) scale(1,1) scale(1,1) scale(1,1) scale(1,1) scale(1,1) scale(1,1) scale(1,1) scale(1,1) scale(1,1) scale(1,1) scale(1,1) scale(1,1) scale(1,1) scale(1,1) scale(1,1) scale(1,1) scale(1,1) scale(1,1) scale(1,1) scale(1,1) scale(1,1) scale(1,1) scale(1,1) scale(1,1) scale(1,1) scale(1,1) scale(1,1) scale(1,1) scale(1,1) scale(1,1) scale(1,1) scale(1,1) scale(1,1) scale(1,1) scale(1,1) scale(1,1) scale(1,1) scale(1,1) scale(1,1) scale(1,1) scale(1,1) scale(1,1) scale(1,1) scale(1,1) scale(1,1) scale(1,1) scale(1,1) scale(1,1) scale(1,1) scale(1,1) scale(1,1) scale(1,1) scale(1,1) scale(1,1) scale(1,1) scale(1,1) scale(1,1) scale(1,1) scale(1,1) scale(1,1) scale(1,1) scale(1,1) scale(1,1) scale(1,1) scale(1,1) scale(1,1) scale(1,1) scale(1,1) scale(1,1) scale(1,1) scale(1,1) scale(1,1) scale(1,1) scale(1,1) scale(1,1) scale(1,1) scale(1,1) scale(1,1) scale(1,1) scale(1,1) scale(1,1) scale(1,1) scale(1,1) scale(1,1) scale(1,1) scale(1,1) scale(1,1) scale(1,1) scale(1,1) scale(1,1) scale(1,1) scale(1,1) scale(1,1) scale(1,1) scale(1,1) scale(1,1) scale(1,1) scale(1,1) scale(1,1) scale(1,1) scale(1,1) scale(1,1) scale(1,1) scale(1,1) scale(1,1) scale(1,1) scale(1,1) scale(1,1) scale(1,1) scale(1,1) scale(1,1) scale(1,1) scale(1,1) scale(1,1) scale(1,1) scale(1,1) scale(1,1) scale(1,1) scale(1,1) scale(1,1) scale(1,1) scale(1,1) scale(1,1) scale(1,1) scale(1,1) scale(1,1) scale(1,1) scale(1,1) scale(1,1) scale(1,1) scale(1,1) scale(1,1) scale(1,1) scale(1,1) scale(1,1) scale(1,1) scale(1,1) scale(1,1) scale(1,1) scale(1,1) scale(1,1) scale(1,1) scale(1,1) scale(1,1) scale(1,1) scale(1,1) scale(1,1) scale(1,1) scale(1,1) scale(1,1) scale(1,1) scale(1,1) scale(1,1) scale(1,1) scale(1,1) scale(1,1) scale(1,1) scale(1,1) scale(1,1) scale(1,1) scale(1,1) scale(1,1) scale(1,1) scale(1,1) scale(1,1) scale(1,1) scale(1,1) scale(1,1) scale(1,1) scale(1,1) scale(1,1) scale(1,1) scale(1,1) scale(1,1) scale(1,1) scale(1,1) scale(1,1) scale(1,1) scale(1,1) scale(1,1) scale(1,1) scale(1,1) scale(1,1) scale(1,1) scale(1,1) scale(1,1) scale(1,1) scale(1,1) scale(1,1) scale(1,1) scale(1,1) scale(1,1) scale(1,1) scale(1,1) scale(1,1) scale(1,1) scale(1,1) scale(1,1) scale(1,1) scale(1,1) scale(1,1) scale(1,1) scale(1,1) scale(1,1) scale(1,1) scale(1,1) scale(1,1) scale(1,1) scale(1,1) scale(1,1) scale(1,1) scale(1,1) scale(1,1) scale(1,1) scale(1,1) scale(1,1) scale(1,1) scale(1,1) scale(1,1) scale(1,1) scale(1,1) scale(1,1) scale(1,1) scale(1,1) scale(1,1) scale(1,1) scale(1,1) scale(1,1) scale(1,1) scale(1,1) scale(1,1) scale(1,1) scale(1,1) scale(1,1) scale(1,1) scale(1,1) scale(1,1) scale(1,1) scale(1,1) scale(1,1) scale(1,1) scale(1,1) scale(1,1) scale(1,1) scale(1,1) scale(1,1) scale(1,1) scale(1,1) scale(1,1) scale(1,1) scale(1,1) scale(1,1) scale(1,1) scale(1,1) scale(1,1) scale(1,1) scale(1,1) scale(1,1) scale(1,1) scale(1,1) scale(1,1) scale(1,1) scale(1,1) scale(1,1) scale(1,1) scale(1,1) scale(1,1) scale(1,1) scale(1,1) scale(1,1) scale(1,1) scale(1,1) scale(1,1) scale(1,1) scale(1,1) scale(1,1) scale(1,1) scale(1,1) scale(1,1) scale(1,1) scale(1,1) scale(1,1) scale(1,1) scale(1,1) scale(1,1) scale(1,1) scale(1,1) scale(1,1) scale(1,1) scale(1,1) scale(1,1) scale(1,1) scale(1,1) scale(1,1) scale(1,1) scale(1,1) scale(1,1) scale(1,1) scale(1,1) scale(1,1) scale(1,1) scale(1,1) scale(1,1) scale(1,1) scale(1,1) scale(1,1) scale(1,1) scale(1,1) scale(1,1) scale(1,1) scale(1,1) scale(1,1) scale(1,1) scale(1,1) scale(1,1) scale(1,1) scale(1,1) scale(1,1) scale(1,1) scale(1,1) scale(1,1) scale(1,1) scale(1,1) scale(1,1) scale(1,1) scale(1,1) scale(1,1) scale(1,1) scale(1,1) scale(1,1) scale(1,1) scale(1,1) scale(1,1) scale(1,1) scale(1,1) scale(1,1) scale(1,1) scale(1,1) scale(1,1) scale(1,1) scale(1,1) scale(1,1) scale(1,1) scale(1,1) scale(1,1) scale(1,1) scale(1,1) scale(1,1) scale(1,1) scale(1,1) scale(1,1) scale(1,1) scale(1,1) scale(1,1) scale(1,1) scale(1,1) scale(1,1) scale(1,1) scale(1,1) scale(1,1) scale(1,1) scale(1,1) scale(1,1) scale(1,1) scale(1,1) scale(1,1) scale(1,1) scale(1,1) scale(1,1) scale(1,1) scale(1,1) scale(1,1) scale(1,1) scale(1,1) scale(1,1) scale(1,1) scale(1,1) scale(1,1) scale(1,1) scale(1,1) scale(1,1) scale(1,1) scale(1,1) scale(1,1) scale(1,1) scale(1,1) scale(1,1) scale(1,1) scale(1,1) scale(1,1) scale(1,1) scale(1,1) scale(1,1) scale(1,1) scale(1,1) scale(1,1) scale(1,1) scale(1,1) scale(1,1) scale(1,1) scale(1,1) scale(1,1) scale(1,1) scale(1,1) scale(1,1) scale(1,1) scale(1,1)"/></g></svg>